<?xml version="1.0" standalone="no"?>
<!DOCTYPE svg PUBLIC "-//W3C//DTD SVG 20010904//EN"
 "http://www.w3.org/TR/2001/REC-SVG-20010904/DTD/svg10.dtd">
<svg version="1.0" xmlns="http://www.w3.org/2000/svg"
 width="100px" height="70px" viewBox="0 0 300 300"
 preserveAspectRatio="xMidYMid meet">
<g transform="translate(0,300) scale(0.1,-0.1)"
fill="#FFFFFF" stroke="none">
<path d="M827 2095 c-89 -31 -167 -79 -251 -156 -32 -30 -31 -58 3 -100 18
-23 21 -23 53 -10 101 41 120 45 147 30 35 -20 37 -58 11 -183 -23 -106 -94
-334 -109 -349 -9 -9 -37 73 -140 409 -66 214 -141 342 -212 359 -23 6 -40 -5
-120 -72 -52 -42 -105 -87 -119 -98 -85 -70 -95 -93 -59 -138 18 -23 25 -26
63 -21 39 6 45 4 71 -27 37 -45 66 -110 110 -255 93 -303 128 -403 159 -459
32 -59 83 -105 115 -105 9 0 84 56 166 124 l150 123 58 132 c79 177 132 321
163 437 34 126 32 261 -3 310 -49 69 -147 87 -256 49z m193 -30 c51 -26 65
-59 64 -150 -1 -131 -70 -356 -189 -616 -52 -113 -52 -113 -227 -255 -109 -89
-118 -94 -142 -83 -30 14 -76 82 -105 156 -11 29 -48 143 -81 255 -80 265
-112 342 -167 397 -43 43 -56 47 -104 27 -11 -5 -19 1 -27 18 -11 24 -6 30
129 141 102 85 145 114 159 110 58 -18 124 -140 188 -350 22 -71 57 -183 77
-249 20 -65 48 -144 61 -175 l25 -56 31 85 c75 211 127 410 128 487 0 34 -5
46 -31 67 -39 33 -78 33 -149 0 l-54 -25 -17 23 c-17 21 -17 24 -1 42 24 26
129 100 182 126 98 50 185 59 250 25z"/>
<path d="M1597 2080 c-125 -39 -287 -180 -342 -296 -41 -87 -34 -142 33 -233
l51 -70 -42 -37 c-63 -56 -134 -142 -157 -191 -22 -46 -27 -134 -10 -177 9
-25 38 -63 74 -97 93 -90 307 -73 452 36 l31 24 49 -41 c55 -45 114 -78 141
-78 18 0 274 203 301 237 18 25 15 41 -14 68 l-26 24 -51 -29 c-56 -32 -74
-30 -134 16 l-33 25 35 47 c20 25 53 80 73 121 32 65 37 85 39 152 2 62 -2 85
-20 120 -12 23 -30 47 -39 53 -19 12 -40 -1 -162 -102 -82 -68 -91 -87 -56
-132 14 -18 20 -41 20 -80 l0 -54 -21 20 c-11 12 -47 56 -79 100 l-59 79 87
90 c106 109 142 176 142 258 0 52 -3 61 -37 98 -65 71 -134 85 -246 49z m183
-33 c54 -28 83 -78 77 -129 -9 -70 -47 -130 -147 -230 l-97 -96 78 -104 c42
-56 91 -119 107 -138 l30 -35 11 40 c20 71 6 151 -35 196 -16 18 -16 20 12 41
16 13 64 51 107 86 l78 62 19 -42 c13 -29 20 -66 20 -113 0 -60 -5 -81 -34
-140 -18 -39 -54 -96 -79 -127 l-47 -57 48 -40 c26 -23 62 -46 80 -52 30 -10
39 -8 84 20 47 30 51 31 64 14 10 -14 10 -21 1 -29 -12 -11 -225 -185 -259
-212 -24 -19 -93 13 -157 73 l-49 46 -44 -33 c-97 -74 -234 -111 -331 -89 -95
21 -177 111 -177 193 0 72 85 196 203 296 l38 32 -61 76 c-55 71 -60 81 -60
126 0 70 45 150 129 231 142 136 290 187 391 134z"/>
<path d="M1480 1879 c-13 -6 -26 -11 -28 -13 -4 -5 121 -216 129 -216 3 0 19
18 34 40 49 71 32 150 -40 184 -37 18 -59 19 -95 5z m104 -50 c30 -23 36 -81
12 -114 -13 -18 -17 -15 -55 45 -22 36 -41 71 -41 78 0 19 55 14 84 -9z"/>
<path d="M1385 1391 c-55 -122 45 -281 176 -281 95 0 95 3 26 89 -34 42 -87
111 -117 153 -30 42 -58 77 -61 77 -3 1 -14 -17 -24 -38z m194 -233 c12 -17
11 -18 -19 -18 -49 0 -116 44 -140 90 -19 38 -28 129 -14 143 6 5 45 -43 173
-215z"/>
<path d="M2288 1976 c-74 -63 -138 -122 -142 -132 -3 -9 2 -33 11 -53 19 -37
23 -39 90 -25 28 5 33 3 38 -18 3 -13 5 -172 3 -354 -3 -294 -5 -333 -20 -357
-25 -37 -22 -59 10 -90 l28 -27 52 22 52 22 113 -22 c172 -34 177 -33 255 40
152 142 212 203 212 218 0 9 -13 29 -29 44 l-29 28 -51 -26 c-59 -30 -141 -35
-231 -13 l-55 13 -5 345 c-5 322 -6 347 -26 389 -24 53 -85 110 -118 110 -14
0 -71 -41 -158 -114z m193 68 c19 -10 39 -33 52 -62 21 -45 22 -62 25 -410 2
-199 7 -360 11 -358 4 3 36 -2 72 -10 35 -9 93 -16 129 -17 54 -1 74 4 115 26
48 27 49 27 67 9 19 -18 16 -22 -116 -146 l-135 -128 -58 7 c-32 4 -85 13
-118 21 -84 19 -144 18 -181 -5 -31 -19 -32 -19 -52 1 l-20 20 22 37 c20 35
21 46 21 388 0 350 0 353 -22 374 -21 22 -23 22 -63 6 -41 -16 -41 -16 -50 9
-6 14 -10 27 -10 29 0 8 262 225 272 225 5 0 23 -7 39 -16z"/>
</g>
</svg>